 <svg width="640" height="480" viewBox="0 0 640 480" xmlns="http://www.w3.org/2000/svg"> <style type="text/css"> circle { fill: url(#starGradient); stroke: none; } polygon { fill: white; stroke: none; } polyline { fill: none; stroke: white; } radialGradient &gt; stop { stop-color: rgba(255,235,235,0.361); } </style> <defs> <radialGradient id="starGradient"> <stop offset="0" stop-opacity="1"/> <stop offset="1" stop-opacity="0.2"/> </radialGradient> </defs> <g> <mask id="star0Mask"> <polyline points="203.0,39.0 203.0,63.0 203.0,51.0 191.0,51.0 215.0,51.0"/> <polygon points="203.0,47.0 207.0,51.0 203.0,55.0 199.0,51.0"/> </mask> <circle cx="203.0" cy="51.0" r="12.0" mask="url(#star0Mask)"/> </g> <g> <mask id="star1Mask"> <polyline points="160.0,344.0 160.0,366.0 160.0,355.0 149.0,355.0 171.0,355.0"/> <polygon points="160.0,351.3333 163.6667,355.0 160.0,358.6667 156.3333,355.0"/> </mask> <circle cx="160.0" cy="355.0" r="11.0" mask="url(#star1Mask)"/> </g> <g> <mask id="star2Mask"> <polyline points="188.0,183.0 188.0,193.0 188.0,188.0 183.0,188.0 193.0,188.0"/> <polygon points="188.0,186.3333 189.6667,188.0 188.0,189.6667 186.3333,188.0"/> </mask> <circle cx="188.0" cy="188.0" r="5.0" mask="url(#star2Mask)"/> </g> <g> <mask id="star3Mask"> <polyline points="366.0,337.0 366.0,359.0 366.0,348.0 355.0,348.0 377.0,348.0"/> <polygon points="366.0,344.3333 369.6667,348.0 366.0,351.6667 362.3333,348.0"/> </mask> <circle cx="366.0" cy="348.0" r="11.0" mask="url(#star3Mask)"/> </g> <g> <mask id="star4Mask"> <polyline points="405.0,280.0 405.0,292.0 405.0,286.0 399.0,286.0 411.0,286.0"/> <polygon points="405.0,284.0 407.0,286.0 405.0,288.0 403.0,286.0"/> </mask> <circle cx="405.0" cy="286.0" r="6.0" mask="url(#star4Mask)"/> </g> <g> <mask id="star5Mask"> <polyline points="596.0,423.0 596.0,445.0 596.0,434.0 585.0,434.0 607.0,434.0"/> <polygon points="596.0,430.3333 599.6667,434.0 596.0,437.6667 592.3333,434.0"/> </mask> <circle cx="596.0" cy="434.0" r="11.0" mask="url(#star5Mask)"/> </g> <g> <mask id="star6Mask"> <polyline points="281.0,16.0 281.0,38.0 281.0,27.0 270.0,27.0 292.0,27.0"/> <polygon points="281.0,23.3333 284.6667,27.0 281.0,30.6667 277.3333,27.0"/> </mask> <circle cx="281.0" cy="27.0" r="11.0" mask="url(#star6Mask)"/> </g> <g> <mask id="star7Mask"> <polyline points="346.0,272.0 346.0,284.0 346.0,278.0 340.0,278.0 352.0,278.0"/> <polygon points="346.0,276.0 348.0,278.0 346.0,280.0 344.0,278.0"/> </mask> <circle cx="346.0" cy="278.0" r="6.0" mask="url(#star7Mask)"/> </g> <g> <mask id="star8Mask"> <polyline points="302.0,132.0 302.0,156.0 302.0,144.0 290.0,144.0 314.0,144.0"/> <polygon points="302.0,140.0 306.0,144.0 302.0,148.0 298.0,144.0"/> </mask> <circle cx="302.0" cy="144.0" r="12.0" mask="url(#star8Mask)"/> </g> <g> <mask id="star9Mask"> <polyline points="356.0,36.0 356.0,52.0 356.0,44.0 348.0,44.0 364.0,44.0"/> <polygon points="356.0,41.3333 358.6667,44.0 356.0,46.6667 353.3333,44.0"/> </mask> <circle cx="356.0" cy="44.0" r="8.0" mask="url(#star9Mask)"/> </g> <g> <mask id="star10Mask"> <polyline points="581.0,22.0 581.0,30.0 581.0,26.0 577.0,26.0 585.0,26.0"/> <polygon points="581.0,24.6667 582.3333,26.0 581.0,27.3333 579.6667,26.0"/> </mask> <circle cx="581.0" cy="26.0" r="4.0" mask="url(#star10Mask)"/> </g> <g> <mask id="star11Mask"> <polyline points="279.0,308.0 279.0,326.0 279.0,317.0 270.0,317.0 288.0,317.0"/> <polygon points="279.0,314.0 282.0,317.0 279.0,320.0 276.0,317.0"/> </mask> <circle cx="279.0" cy="317.0" r="9.0" mask="url(#star11Mask)"/> </g> <g> <mask id="star12Mask"> <polyline points="558.0,113.0 558.0,121.0 558.0,117.0 554.0,117.0 562.0,117.0"/> <polygon points="558.0,115.6667 559.3333,117.0 558.0,118.3333 556.6667,117.0"/> </mask> <circle cx="558.0" cy="117.0" r="4.0" mask="url(#star12Mask)"/> </g> <g> <mask id="star13Mask"> <polyline points="549.0,246.0 549.0,270.0 549.0,258.0 537.0,258.0 561.0,258.0"/> <polygon points="549.0,254.0 553.0,258.0 549.0,262.0 545.0,258.0"/> </mask> <circle cx="549.0" cy="258.0" r="12.0" mask="url(#star13Mask)"/> </g> <g> <mask id="star14Mask"> <polyline points="105.0,377.0 105.0,387.0 105.0,382.0 100.0,382.0 110.0,382.0"/> <polygon points="105.0,380.3333 106.6667,382.0 105.0,383.6667 103.3333,382.0"/> </mask> <circle cx="105.0" cy="382.0" r="5.0" mask="url(#star14Mask)"/> </g> <g> <mask id="star15Mask"> <polyline points="214.0,245.0 214.0,257.0 214.0,251.0 208.0,251.0 220.0,251.0"/> <polygon points="214.0,249.0 216.0,251.0 214.0,253.0 212.0,251.0"/> </mask> <circle cx="214.0" cy="251.0" r="6.0" mask="url(#star15Mask)"/> </g> <g> <mask id="star16Mask"> <polyline points="486.0,273.0 486.0,289.0 486.0,281.0 478.0,281.0 494.0,281.0"/> <polygon points="486.0,278.3333 488.6667,281.0 486.0,283.6667 483.3333,281.0"/> </mask> <circle cx="486.0" cy="281.0" r="8.0" mask="url(#star16Mask)"/> </g> <g> <mask id="star17Mask"> <polyline points="135.0,201.0 135.0,225.0 135.0,213.0 123.0,213.0 147.0,213.0"/> <polygon points="135.0,209.0 139.0,213.0 135.0,217.0 131.0,213.0"/> </mask> <circle cx="135.0" cy="213.0" r="12.0" mask="url(#star17Mask)"/> </g> <g> <mask id="star18Mask"> <polyline points="232.0,117.0 232.0,133.0 232.0,125.0 224.0,125.0 240.0,125.0"/> <polygon points="232.0,122.3333 234.6667,125.0 232.0,127.6667 229.3333,125.0"/> </mask> <circle cx="232.0" cy="125.0" r="8.0" mask="url(#star18Mask)"/> </g> <g> <mask id="star19Mask"> <polyline points="55.0,308.0 55.0,314.0 55.0,311.0 52.0,311.0 58.0,311.0"/> <polygon points="55.0,310.0 56.0,311.0 55.0,312.0 54.0,311.0"/> </mask> <circle cx="55.0" cy="311.0" r="3.0" mask="url(#star19Mask)"/> </g> <g> <mask id="star20Mask"> <polyline points="473.0,80.0 473.0,102.0 473.0,91.0 462.0,91.0 484.0,91.0"/> <polygon points="473.0,87.3333 476.6667,91.0 473.0,94.6667 469.3333,91.0"/> </mask> <circle cx="473.0" cy="91.0" r="11.0" mask="url(#star20Mask)"/> </g> <g> <mask id="star21Mask"> <polyline points="23.0,253.0 23.0,263.0 23.0,258.0 18.0,258.0 28.0,258.0"/> <polygon points="23.0,256.3333 24.6667,258.0 23.0,259.6667 21.3333,258.0"/> </mask> <circle cx="23.0" cy="258.0" r="5.0" mask="url(#star21Mask)"/> </g> <g> <mask id="star22Mask"> <polyline points="493.0,370.0 493.0,394.0 493.0,382.0 481.0,382.0 505.0,382.0"/> <polygon points="493.0,378.0 497.0,382.0 493.0,386.0 489.0,382.0"/> </mask> <circle cx="493.0" cy="382.0" r="12.0" mask="url(#star22Mask)"/> </g> <g> <mask id="star23Mask"> <polyline points="436.0,405.0 436.0,423.0 436.0,414.0 427.0,414.0 445.0,414.0"/> <polygon points="436.0,411.0 439.0,414.0 436.0,417.0 433.0,414.0"/> </mask> <circle cx="436.0" cy="414.0" r="9.0" mask="url(#star23Mask)"/> </g> <g> <mask id="star24Mask"> <polyline points="370.0,451.0 370.0,461.0 370.0,456.0 365.0,456.0 375.0,456.0"/> <polygon points="370.0,454.3333 371.6667,456.0 370.0,457.6667 368.3333,456.0"/> </mask> <circle cx="370.0" cy="456.0" r="5.0" mask="url(#star24Mask)"/> </g> </svg>